<svg width="25" height="25" viewBox="0 0 25 25" fill="none" xmlns="http://www.w3.org/2000/svg">
<path fill-rule="evenodd" clip-rule="evenodd" d="M11.2109 2.16797V2.16538C11.2258 1.83314 11.3682 1.51944 11.6086 1.28959C11.849 1.05975 12.1687 0.931469 12.5013 0.931469C12.8339 0.931469 13.1536 1.05975 13.394 1.28959C13.6343 1.51944 13.7768 1.83314 13.7917 2.16538V2.16926C13.7923 4.55655 14.737 6.84671 16.4198 8.5401C18.1025 10.2335 20.3867 11.1927 22.7739 11.2083L22.8346 11.2071C23.1774 11.2071 23.5061 11.3432 23.7484 11.5856C23.9908 11.8279 24.1269 12.1566 24.1269 12.4994C24.1269 12.8421 23.9908 13.1708 23.7484 13.4132C23.5061 13.6555 23.1774 13.7917 22.8346 13.7917H22.8307C21.6437 13.7915 20.4683 14.0253 19.3717 14.4796C18.275 14.934 17.2787 15.6 16.4396 16.4396C15.6 17.2787 14.934 18.275 14.4796 19.3717C14.0253 20.4683 13.7915 21.6437 13.7917 22.8308V22.8321C13.7918 23.0017 13.7586 23.1697 13.6938 23.3264C13.6291 23.4832 13.5341 23.6257 13.4143 23.7458C13.2944 23.8658 13.1521 23.9611 12.9955 24.0262C12.8388 24.0913 12.6709 24.1248 12.5013 24.125C12.3313 24.1252 12.163 24.0918 12.006 24.0268C11.849 23.9618 11.7063 23.8665 11.5862 23.7462C11.4661 23.626 11.3709 23.4832 11.306 23.3262C11.2412 23.1691 11.208 23.0007 11.2083 22.8308C11.2085 21.6437 10.9747 20.4683 10.5204 19.3717C10.066 18.275 9.40002 17.2787 8.56041 16.4396C7.72131 15.6 6.72497 14.934 5.62833 14.4796C4.5317 14.0253 3.35627 13.7915 2.16925 13.7917C1.82667 13.7836 1.50004 13.6398 1.2635 13.3919C1.02696 13.144 0.89859 12.8122 0.906641 12.4697C0.914691 12.1271 1.0585 11.8017 1.30642 11.5652C1.55435 11.3287 1.88609 11.2003 2.22866 11.2083C4.60537 11.1929 6.88025 10.2415 8.56041 8.56043C9.40002 7.72133 10.066 6.72498 10.5204 5.62835C10.9747 4.53171 11.2085 3.35629 11.2083 2.16926L11.2109 2.16797ZM6.04424 22.761V22.8333C6.04424 23.1759 5.90816 23.5045 5.66593 23.7467C5.42369 23.9889 5.09515 24.125 4.75258 24.125C4.41001 24.125 4.08147 23.9889 3.83923 23.7467C3.597 23.5045 3.46091 23.1759 3.46091 22.8333C3.46091 22.6635 3.42742 22.4953 3.36234 22.3384C3.29727 22.1816 3.20189 22.0391 3.08168 21.9191C2.96146 21.7991 2.81876 21.704 2.66175 21.6393C2.50474 21.5745 2.3365 21.5413 2.16666 21.5417H2.16408C1.82151 21.5413 1.4931 21.4049 1.25111 21.1624C1.00912 20.92 0.873361 20.5913 0.873704 20.2487C0.874046 19.9061 1.01046 19.5777 1.25294 19.3358C1.49541 19.0938 1.82409 18.958 2.16666 18.9583C2.3365 18.9587 2.50474 18.9255 2.66175 18.8608C2.81876 18.796 2.96146 18.7009 3.08168 18.5809C3.20189 18.461 3.29727 18.3185 3.36234 18.1616C3.42742 18.0047 3.46091 17.8365 3.46091 17.6667C3.46091 17.3241 3.597 16.9956 3.83923 16.7533C4.08147 16.5111 4.41001 16.375 4.75258 16.375C5.09515 16.375 5.42369 16.5111 5.66593 16.7533C5.90816 16.9956 6.04424 17.3241 6.04424 17.6667V17.739C6.0817 18.4184 6.64616 18.9583 7.33591 18.9583C7.67848 18.958 8.00716 19.0938 8.24964 19.3358C8.49211 19.5777 8.62853 19.9061 8.62887 20.2487C8.62921 20.5913 8.49345 20.92 8.25146 21.1624C8.00947 21.4049 7.68107 21.5413 7.33849 21.5417H7.33591C6.64616 21.5417 6.0817 22.0816 6.04424 22.761ZM12.5 7.49222C13.05 8.56089 13.7624 9.53781 14.6119 10.3881C15.4622 11.2376 16.4391 11.95 17.5078 12.5C16.4391 13.05 15.4622 13.7625 14.6119 14.6119C13.7624 15.4622 13.05 16.4391 12.5 17.5078C11.95 16.4391 11.2375 15.4622 10.3881 14.6119C9.53779 13.7625 8.56088 13.05 7.4922 12.5C8.56088 11.95 9.53779 11.2376 10.3881 10.3881C11.2375 9.53781 11.95 8.56089 12.5 7.49222ZM21.5404 7.25972L21.5417 7.33205C21.5417 7.67462 21.4056 8.00316 21.1633 8.2454C20.9211 8.48763 20.5926 8.62372 20.25 8.62372C19.9074 8.62372 19.5789 8.48763 19.3366 8.2454C19.0944 8.00316 18.9583 7.67462 18.9583 7.33205C18.9583 7.16221 18.9248 6.99404 18.8598 6.83715C18.7947 6.68027 18.6993 6.53777 18.5791 6.41779C18.4589 6.29781 18.3162 6.20272 18.1592 6.13796C18.0022 6.0732 17.8339 6.04005 17.6641 6.04038H17.6615C17.3189 6.04004 16.9905 5.90363 16.7485 5.66115C16.5065 5.41867 16.3708 5.09 16.3711 4.74743C16.3715 4.40486 16.5079 4.07645 16.7504 3.83446C16.9928 3.59247 17.3215 3.45671 17.6641 3.45705C18.3784 3.45705 18.9583 2.87838 18.9583 2.16538C18.9583 1.82281 19.0944 1.49427 19.3366 1.25204C19.5789 1.0098 19.9074 0.873718 20.25 0.873718C20.5926 0.873718 20.9211 1.0098 21.1633 1.25204C21.4056 1.49427 21.5417 1.82281 21.5417 2.16538L21.5404 2.23643C21.5778 2.91713 22.1436 3.45705 22.8333 3.45705C23.1759 3.45671 23.5046 3.59247 23.7471 3.83446C23.9895 4.07645 24.1259 4.40486 24.1263 4.74743C24.1266 5.09 23.9909 5.41867 23.7489 5.66115C23.5069 5.90363 23.1785 6.04004 22.8359 6.04038H22.8333C22.1436 6.04038 21.5778 6.57901 21.5404 7.25972Z" fill="url(#paint0_linear_5_47)"/>
<defs>
<linearGradient id="paint0_linear_5_47" x1="0.873703" y1="0.873718" x2="24.1651" y2="0.950637" gradientUnits="userSpaceOnUse">
<stop stop-color="#8855C9"/>
<stop offset="1" stop-color="#317AE2"/>
</linearGradient>
</defs>
</svg>
